<?xml version="1.0"?>
<!DOCTYPE svg PUBLIC "-//W3C//DTD SVG 1.1//EN" "http://www.w3.org/Graphics/SVG/1.1/DTD/svg11.dtd">
<svg xmlns="http://www.w3.org/2000/svg" xmlns:xl="http://www.w3.org/1999/xlink" version="1.1" viewBox="740.43336 321.43336 76.13328 20.13328" width="76.13328pt" height="20.13328pt"><metadata xmlns:dc="http://purl.org/dc/elements/1.1/"><dc:date>2015-06-24 11:36Z</dc:date><!-- Produced by OmniGraffle Professional 5.4.4 --></metadata><defs><marker orient="auto" overflow="visible" markerUnits="strokeWidth" id="FilledArrow_Marker" viewBox="-1 -4 10 8" markerWidth="10" markerHeight="8" color="black"><g><path d="M 8 0 L 0 -3 L 0 3 Z" fill="currentColor" stroke="currentColor" stroke-width="1"/></g></marker></defs><g stroke="none" stroke-opacity="1" stroke-dasharray="none" fill="none" fill-opacity="1"><title>Canvas 2</title><g><title>Layer 1</title><circle cx="750.75" cy="331.5" r="7.000011" fill="white"/><path d="M 755.69974 326.55026 C 758.43342 329.28393 758.43342 333.71607 755.69974 336.44974 C 752.96607 339.18342 748.53393 339.18342 745.80026 336.44974 C 743.06658 333.71607 743.06658 329.28393 745.80026 326.55026 C 748.53393 323.81658 752.96607 323.81658 755.69974 326.55026" stroke="black" stroke-linecap="round" stroke-linejoin="round" stroke-width="1" stroke-dasharray="4,4"/><circle cx="806.25" cy="331.5" r="7.000011" fill="white"/><path d="M 811.19974 326.55026 C 813.9334 329.28393 813.9334 333.71607 811.19974 336.44974 C 808.46607 339.18342 804.03393 339.18342 801.30026 336.44974 C 798.56658 333.71607 798.56658 329.28393 801.30026 326.55026 C 804.03393 323.81658 808.46607 323.81658 811.19974 326.55026" stroke="black" stroke-linecap="round" stroke-linejoin="round" stroke-width="1" stroke-dasharray="4,4"/><line x1="798.75" y1="331.5" x2="768.15" y2="331.5" marker-end="url(#FilledArrow_Marker)" stroke="black" stroke-linecap="round" stroke-linejoin="round" stroke-width="1"/></g></g></svg>
